<svg width="218" height="54" viewBox="0 0 218 54" fill="none" xmlns="http://www.w3.org/2000/svg">
<g id="Layer 1">
<path id="Vector" d="M45.7929 7.88642C41.1374 3.0674 34.7897 0.248593 28.0929 0.0264218C26.7588 -0.0297464 25.4225 0.00366193 24.0929 0.126422C17.9279 0.704734 12.1738 3.47179 7.87287 7.92642C3.07049 12.5825 0.263282 18.9211 0.0428653 25.6064C-0.171583 29.3365 0.420398 33.0689 1.77849 36.5496C3.13658 40.0302 5.22887 43.1773 7.91287 45.7764C12.5425 50.5578 18.8418 53.3635 25.4929 53.6064C29.2405 53.8463 32.9957 53.2715 36.5 51.9216C40.0044 50.5716 43.1747 48.4786 45.7929 45.7864C50.5319 41.155 53.3343 34.896 53.6329 28.2764C53.6329 27.7964 53.6329 27.2764 53.6329 26.8264C53.6577 23.3058 52.9767 19.8159 51.6301 16.5628C50.2835 13.3097 48.2987 10.3595 45.7929 7.88642ZM26.7729 51.0264C21.9948 51.0086 17.3291 49.5757 13.3648 46.9084C9.40052 44.2411 6.31531 40.4591 4.49868 36.0398C2.68205 31.6206 2.21545 26.7621 3.15777 22.0779C4.10008 17.3936 6.40908 13.0936 9.79327 9.72054C13.1775 6.34751 17.4851 4.05272 22.1725 3.12587C26.8598 2.19902 31.7166 2.68167 36.1299 4.51288C40.5431 6.34409 44.3149 9.44177 46.9691 13.4149C49.6233 17.388 51.0409 22.0583 51.0429 26.8364C51.0429 27.3164 51.0429 27.8364 50.9929 28.2764C50.618 34.4418 47.9017 40.231 43.3995 44.4599C38.8974 48.6888 32.9496 51.0378 26.7729 51.0264Z" fill="#1D1919"/>
<path id="Vector_2" d="M16.6328 8.39641C16.6328 8.59641 16.6328 8.80641 16.6328 9.00641C16.3758 11.9994 16.329 15.0068 16.4928 18.0064C16.6096 20.4662 16.8936 22.9152 17.3428 25.3364C17.7428 27.4064 18.1928 29.4764 18.7628 31.5064C19.3328 33.5364 20.0628 35.6264 20.7628 37.6564C21.5925 39.9074 22.5748 42.0991 23.7028 44.2164C24.7028 46.0364 25.7028 47.8164 26.7028 49.6164L26.8928 49.9364C26.9663 49.8659 27.0332 49.7889 27.0928 49.7064C28.6295 47.2011 30.0023 44.599 31.2028 41.9164C32.0428 40.0264 32.8428 38.1664 33.5428 36.2464C34.1728 34.4964 34.6928 32.7064 35.2028 30.9164C35.8291 28.7533 36.297 26.5475 36.6028 24.3164C36.8628 22.4364 37.0428 20.5364 37.2128 18.6464C37.3928 16.2103 37.4128 13.7651 37.2728 11.3264C37.2728 10.4664 37.1528 9.61641 37.0828 8.75641V8.46641C37.1533 8.49148 37.2205 8.52507 37.2828 8.56641C39.9847 10.6837 42.1641 13.3934 43.6528 16.4864L43.7628 16.7264C43.7981 16.7818 43.8202 16.8445 43.8275 16.9097C43.8348 16.975 43.827 17.041 43.8048 17.1028C43.7826 17.1646 43.7465 17.2205 43.6994 17.2662C43.6523 17.3119 43.5953 17.3461 43.5328 17.3664C43.0528 17.5864 42.5328 17.7664 42.0728 17.9664C41.6128 18.1664 41.5928 18.2764 41.7528 18.7064C42.0936 19.5579 42.581 20.3431 43.1928 21.0264C43.8628 21.7964 43.9828 21.6864 43.5928 22.7964C43.2028 23.9064 42.9828 25.0264 42.6528 26.0264C41.3865 30.2243 39.6169 34.2535 37.3828 38.0264C35.7461 40.8463 33.8189 43.4873 31.6328 45.9064C30.3105 47.3305 28.8686 48.6386 27.3228 49.8164C26.8728 50.1564 26.8728 50.1464 26.4328 49.8164C22.5603 46.7816 19.2877 43.0511 16.7828 38.8164C14.8524 35.7434 13.2821 32.4585 12.1028 29.0264C11.5628 27.4364 11.0028 25.8464 10.4728 24.2564C10.2428 23.5664 10.0728 22.8564 9.87283 22.1564C9.82861 22.0018 9.8276 21.838 9.86991 21.6829C9.91222 21.5277 9.99624 21.3872 10.1128 21.2764C10.8667 20.4816 11.4759 19.561 11.9128 18.5564C12.0728 18.1664 12.0228 18.0264 11.6228 17.8764L10.2528 17.3364C9.76283 17.1464 9.71283 17.0064 9.93283 16.5264C10.9851 14.207 12.4564 12.1018 14.2728 10.3164C14.8128 9.77641 15.3928 9.26641 15.9528 8.74641C16.1428 8.58641 16.3528 8.45641 16.5528 8.31641H16.6328" fill="#1D1919"/>
<path id="Vector_3" d="M33.7529 9.93644C33.748 10.9886 33.569 12.0328 33.2229 13.0264C33.1429 13.2364 32.9929 13.3664 32.7529 13.2664L29.1729 11.6364C29.0195 11.5703 28.8803 11.4752 28.7629 11.3564C28.6357 11.2262 28.4753 11.1331 28.2991 11.0873C28.1229 11.0415 27.9375 11.0446 27.7629 11.0964C27.1953 11.2115 26.6105 11.2115 26.0429 11.0964C25.8548 11.058 25.6606 11.0614 25.474 11.1063C25.2874 11.1512 25.1129 11.2366 24.9629 11.3564C24.4202 11.6997 23.8519 12.0005 23.2629 12.2564C22.5829 12.5864 21.8829 12.8764 21.2029 13.1864C20.7829 13.3764 20.6329 13.3264 20.4929 12.8864C19.9816 11.4691 19.8271 9.94766 20.0429 8.45644C20.1429 7.83644 20.3129 7.23644 20.4729 6.62644C20.5529 6.31644 20.7229 6.23644 21.0029 6.35644C22.1729 6.87644 23.3429 7.35644 24.5029 7.94644C24.6834 8.03283 24.8488 8.14762 24.9929 8.28644C25.0995 8.39364 25.2316 8.47192 25.3768 8.51391C25.5221 8.5559 25.6756 8.56021 25.8229 8.52644C26.5008 8.3714 27.205 8.3714 27.8829 8.52644C28.0203 8.55543 28.1625 8.55152 28.2981 8.51503C28.4337 8.47853 28.5587 8.41048 28.6629 8.31644C29.2311 7.88324 29.8661 7.54549 30.5429 7.31644C31.2029 7.02644 31.8529 6.74644 32.5429 6.44644C32.9929 6.23644 33.1329 6.26644 33.2829 6.71644C33.5999 7.64043 33.7654 8.60961 33.7729 9.58644C33.7729 9.70644 33.7729 9.82644 33.7729 9.94644" fill="#1D1919"/>
<path id="Vector_4" d="M25.5227 37.7765C25.5438 37.4164 25.6957 37.0765 25.9499 36.8205C26.204 36.5646 26.5428 36.4102 26.9027 36.3865C27.2497 36.416 27.573 36.5747 27.8086 36.8312C28.0442 37.0876 28.1749 37.4232 28.1749 37.7715C28.1749 38.1197 28.0442 38.4553 27.8086 38.7118C27.573 38.9683 27.2497 39.127 26.9027 39.1565C26.5426 39.1353 26.2027 38.9834 25.9468 38.7293C25.6908 38.4752 25.5364 38.1364 25.5127 37.7765" fill="#1D1919"/>
<path id="Vector_5" d="M25.5229 17.1265C25.5441 16.7717 25.6938 16.4368 25.9442 16.1846C26.1946 15.9324 26.5284 15.7802 26.8829 15.7565C27.2416 15.7818 27.5792 15.935 27.8343 16.1883C28.0894 16.4416 28.2451 16.7781 28.2729 17.1365C28.2403 17.4908 28.086 17.8228 27.8363 18.0762C27.5865 18.3296 27.2567 18.4887 26.903 18.5265C26.5422 18.5004 26.2032 18.3439 25.9493 18.0863C25.6954 17.8287 25.5439 17.4876 25.5229 17.1265Z" fill="#1D1919"/>
<path id="Vector_6" d="M25.5229 27.4464C25.5318 27.0844 25.6749 26.7387 25.9244 26.4763C26.1738 26.2139 26.5119 26.0535 26.8729 26.0264C27.2389 26.0264 27.5899 26.1718 27.8487 26.4306C28.1075 26.6894 28.2529 27.0404 28.2529 27.4064C28.2529 27.7724 28.1075 28.1234 27.8487 28.3822C27.5899 28.641 27.2389 28.7864 26.8729 28.7864C26.5142 28.7669 26.1754 28.615 25.9223 28.3601C25.6692 28.1051 25.5197 27.7652 25.5029 27.4064" fill="#1D1919"/>
<path id="Vector_7" d="M67.7227 12.9664H59.7227C58.7227 12.9664 58.2627 12.5864 58.2627 11.7664C58.2627 10.9464 58.7527 10.5664 59.7227 10.5664H78.8427C79.8427 10.5664 80.3327 10.9764 80.3327 11.7364C80.3327 12.4964 79.8327 12.9664 78.8427 12.9664H70.8427V29.7264C70.8427 30.5464 70.3227 30.9564 69.2927 30.9564C68.2627 30.9564 67.6827 30.5464 67.6827 29.7264L67.7227 12.9664Z" fill="#1D1919"/>
<path id="Vector_8" d="M82.153 24.6664V26.4464C82.153 27.8264 83.493 28.5264 86.213 28.5264H90.543C91.543 28.5264 92.013 28.9064 92.013 29.6664C92.013 30.4264 91.513 30.8064 90.543 30.8064H86.213C81.473 30.8064 79.083 29.3764 79.083 26.4764V20.7464C79.083 17.9964 81.213 16.5964 85.453 16.5964H93.913C98.0597 16.5964 100.136 17.8431 100.143 20.3364V23.6164C100.143 24.3164 99.673 24.6664 98.793 24.6664H82.153ZM82.153 22.6664H96.833C97.013 22.6664 97.073 22.5764 97.073 22.4664V20.9264C97.073 19.5764 95.953 18.9264 93.673 18.9264H85.673C83.333 18.9264 82.193 19.5964 82.193 20.9264L82.153 22.6664Z" fill="#1D1919"/>
<path id="Vector_9" d="M112.043 25.2464L104.263 30.5464C103.924 30.8358 103.487 30.9827 103.043 30.9564C102.043 30.9564 101.513 30.5464 101.513 29.7864C101.533 29.5656 101.608 29.3534 101.732 29.1698C101.856 28.9861 102.025 28.837 102.223 28.7364L109.713 23.6164L102.713 18.7264C102.503 18.6229 102.323 18.4658 102.193 18.2709C102.064 18.0759 101.987 17.8502 101.973 17.6164C101.973 16.8264 102.503 16.4464 103.553 16.4464C104.021 16.4375 104.477 16.5932 104.843 16.8864L112.283 22.0264L119.853 16.8464C120.205 16.5727 120.636 16.4185 121.083 16.4064C122.083 16.4064 122.603 16.8164 122.603 17.6064C122.588 17.8272 122.515 18.0403 122.392 18.2245C122.27 18.4086 122.101 18.5575 121.903 18.6564L114.623 23.6564L121.873 28.6564C122.075 28.7685 122.247 28.9281 122.374 29.1215C122.502 29.3148 122.58 29.5361 122.603 29.7664C122.603 30.5564 122.083 30.9364 121.033 30.9364C120.553 30.9619 120.081 30.8047 119.713 30.4964L112.043 25.2464Z" fill="#1D1919"/>
<path id="Vector_10" d="M139.783 17.3864L144.963 27.0264L149.873 17.2864C149.999 17.0029 150.21 16.7657 150.477 16.6079C150.744 16.4502 151.054 16.3797 151.363 16.4064C152.303 16.4064 152.913 16.8764 152.913 17.6064C152.909 17.8627 152.84 18.1138 152.713 18.3364L146.543 30.0264C146.425 30.3362 146.21 30.6002 145.932 30.78C145.653 30.9599 145.324 31.0462 144.993 31.0264C144.672 31.051 144.35 30.9733 144.076 30.8045C143.801 30.6356 143.587 30.3843 143.463 30.0864L138.233 20.5264L133.043 30.0264C132.919 30.3217 132.706 30.571 132.433 30.7394C132.161 30.9079 131.843 30.9873 131.523 30.9664C131.19 30.998 130.856 30.9165 130.575 30.7351C130.294 30.5537 130.082 30.2829 129.973 29.9664L123.773 18.3564C123.647 18.1344 123.584 17.8817 123.593 17.6264C123.593 16.8964 124.213 16.4264 125.153 16.4264C125.466 16.4007 125.779 16.4712 126.051 16.6285C126.323 16.7857 126.54 17.0223 126.673 17.3064L131.503 27.0264L136.683 17.3764C136.831 17.0936 137.054 16.8567 137.327 16.6914C137.601 16.5262 137.914 16.4388 138.233 16.4388C138.552 16.4388 138.866 16.5262 139.139 16.6914C139.412 16.8567 139.635 17.0936 139.783 17.3764V17.3864Z" fill="#1D1919"/>
<path id="Vector_11" d="M161.813 30.8064C156.753 30.8064 154.233 29.2564 154.233 26.1864V21.2464C154.233 18.1464 156.76 16.5964 161.813 16.5964H167.453C172.523 16.5964 175.033 18.1464 175.033 21.2464V26.1864C175.033 29.2564 172.523 30.8064 167.453 30.8064H161.813ZM171.903 21.2164C171.903 19.7264 170.443 18.9864 167.543 18.9864H161.693C158.833 18.9864 157.363 19.7264 157.363 21.2164V26.2164C157.363 27.6764 158.833 28.4364 161.693 28.4364H167.543C170.443 28.4364 171.903 27.6764 171.903 26.2164V21.2164Z" fill="#1D1919"/>
<path id="Vector_12" d="M177.523 21.2464C177.523 18.1464 180.04 16.5964 185.073 16.5964H187.323C188.323 16.5964 188.813 17.0064 188.813 17.7964C188.813 18.5864 188.323 19.0264 187.323 19.0264H184.953C182.083 19.0264 180.623 19.7664 180.623 21.2264V29.7264C180.623 30.5464 180.103 30.9564 179.073 30.9564C178.043 30.9564 177.523 30.5164 177.523 29.7264V21.2464Z" fill="#1D1919"/>
<path id="Vector_13" d="M190.513 11.2365C190.513 10.4465 191.043 10.0065 192.063 10.0065C193.083 10.0065 193.613 10.4465 193.613 11.2365V29.7265C193.613 30.5465 193.083 30.9565 192.063 30.9565C191.043 30.9565 190.513 30.5465 190.513 29.7265V11.2365Z" fill="#1D1919"/>
<path id="Vector_14" d="M203.823 30.8065C198.823 30.8065 196.273 29.2565 196.273 26.1865V21.2465C196.273 18.1465 198.823 16.5965 203.823 16.5965H214.153V11.2365C214.153 10.4465 214.703 10.0065 215.723 10.0065C216.743 10.0065 217.283 10.4465 217.283 11.2365V26.2365C217.283 29.3065 214.763 30.8565 209.733 30.8565L203.823 30.8065ZM214.153 26.2165V19.0265H203.733C200.873 19.0265 199.403 19.7665 199.403 21.2565V26.2565C199.403 27.7165 200.873 28.4765 203.733 28.4765H209.823C212.683 28.4365 214.153 27.6765 214.153 26.2165Z" fill="#1D1919"/>
<path id="Vector_15" d="M78.943 43.0264C77.653 43.0264 77.043 42.5564 77.043 41.6864V38.6864C77.043 38.4964 77.163 38.4064 77.393 38.4064C77.623 38.4064 77.753 38.4964 77.753 38.6864V41.6864C77.753 42.2064 78.163 42.4564 79.003 42.4564H80.433C81.273 42.4564 81.673 42.2064 81.673 41.6864V38.6864C81.673 38.4964 81.803 38.4064 82.043 38.4064C82.283 38.4064 82.393 38.4964 82.393 38.6864V41.6864C82.393 42.5564 81.743 42.9764 80.463 42.9764L78.943 43.0264Z" fill="#1D1919"/>
<path id="Vector_16" d="M83.8428 38.5464L87.8428 42.0364V38.6664C87.8428 38.4864 87.9528 38.3964 88.1928 38.3964C88.4328 38.3964 88.5528 38.4864 88.5528 38.6664V42.7364C88.5528 42.9164 88.4228 43.0164 88.1728 43.0164C88.0397 43.0108 87.9141 42.9534 87.8228 42.8564L83.8228 39.3664V42.7364C83.8228 42.9164 83.6928 43.0164 83.4528 43.0164C83.2128 43.0164 83.1128 42.9164 83.1128 42.7364V38.6764C83.1128 38.4864 83.2328 38.3964 83.4728 38.3964C83.5415 38.394 83.61 38.4062 83.6738 38.432C83.7375 38.4579 83.7951 38.4968 83.8428 38.5464Z" fill="#1D1919"/>
<path id="Vector_17" d="M89.3027 38.6764C89.3027 38.4864 89.4227 38.3964 89.6627 38.3964C89.9027 38.3964 90.0127 38.4864 90.0127 38.6764V42.7364C90.0127 42.9164 89.8827 43.0164 89.6427 43.0164C89.4027 43.0164 89.3027 42.9164 89.3027 42.7364V38.6764Z" fill="#1D1919"/>
<path id="Vector_18" d="M90.7627 39.6564C90.7627 38.8364 91.3927 38.4264 92.6527 38.4264H93.4327C93.6527 38.4264 93.7627 38.5264 93.7627 38.6964C93.7627 38.8664 93.6527 38.9664 93.4327 38.9664H92.6627C91.8627 38.9664 91.4727 39.2064 91.4727 39.6664V40.4564H95.3727C95.5927 40.4564 95.6927 40.5564 95.6927 40.7264C95.6927 40.8964 95.5927 40.9964 95.3727 40.9964H91.4727V42.7364C91.4727 42.9164 91.3527 43.0164 91.1227 43.0164C90.8927 43.0164 90.7627 42.9164 90.7627 42.7364V39.6564Z" fill="#1D1919"/>
<path id="Vector_19" d="M98.1229 43.0265C96.8429 43.0265 96.1929 42.6065 96.1929 41.7665V39.7665C96.1929 38.9265 96.8329 38.5065 98.0929 38.5065H99.5529C100.823 38.5065 101.453 38.9265 101.453 39.7665V41.7665C101.453 42.6065 100.803 43.0265 99.5229 43.0265H98.1229ZM100.743 39.7465C100.743 39.2665 100.343 39.0165 99.5429 39.0165H98.1029C97.3129 39.0165 96.9029 39.2665 96.9029 39.7465V41.7465C96.9029 42.2365 97.3129 42.4865 98.1129 42.4865H99.5329C100.343 42.4865 100.743 42.2365 100.743 41.7465V39.7465Z" fill="#1D1919"/>
<path id="Vector_20" d="M102.903 41.1964V42.7364C102.903 42.9164 102.783 43.0164 102.543 43.0164C102.303 43.0164 102.193 42.9164 102.193 42.7364V38.6564C102.193 38.5064 102.303 38.4264 102.503 38.4264H105.593C106.953 38.4264 107.593 38.7964 107.593 39.5464V40.0264C107.593 40.7564 106.913 41.1264 105.593 41.1264H104.043L107.043 42.4764C107.173 42.5364 107.233 42.6064 107.233 42.7264C107.233 42.8464 107.103 43.0164 106.873 43.0164C106.785 43.0155 106.699 42.9913 106.623 42.9464L102.903 41.1964ZM102.903 40.6364H105.613C106.493 40.6364 106.923 40.4364 106.923 40.0364V39.5564C106.923 39.1664 106.493 38.9664 105.613 38.9664H102.963C102.963 38.9664 102.903 38.9664 102.903 39.0164V40.6364Z" fill="#1D1919"/>
<path id="Vector_21" d="M114.713 39.5964L112.213 42.8364C112.169 42.8925 112.113 42.9379 112.049 42.9691C111.985 43.0003 111.914 43.0166 111.843 43.0166C111.772 43.0166 111.701 43.0003 111.637 42.9691C111.573 42.9379 111.517 42.8925 111.473 42.8364L108.983 39.6064V42.7364C108.983 42.9164 108.863 43.0164 108.623 43.0164C108.383 43.0164 108.273 42.9164 108.273 42.7364V38.7364C108.273 38.5464 108.403 38.4364 108.633 38.4364C108.711 38.432 108.789 38.4481 108.86 38.4832C108.93 38.5183 108.989 38.5711 109.033 38.6364L111.843 42.2864L114.663 38.6364C114.708 38.5724 114.768 38.5207 114.838 38.4858C114.907 38.4508 114.985 38.4339 115.063 38.4364C115.303 38.4364 115.423 38.5464 115.423 38.7364V42.7364C115.423 42.9164 115.303 43.0164 115.073 43.0164C114.843 43.0164 114.713 42.9164 114.713 42.7364V39.5964Z" fill="#1D1919"/>
<path id="Vector_22" d="M121.043 41.9364C121.043 42.6264 120.373 42.9364 119.043 42.9364H116.383C116.163 42.9364 116.043 42.8464 116.043 42.6664C116.043 42.4864 116.163 42.3964 116.383 42.3964H119.043C119.903 42.3964 120.333 42.2164 120.333 41.8564V41.4264C120.333 41.0764 119.933 40.8964 119.113 40.8964H117.873C116.673 40.8964 116.073 40.5664 116.073 39.8964V39.4164C116.073 38.7464 116.693 38.4164 117.913 38.4164H118.653C118.873 38.4164 118.983 38.5164 118.983 38.6864C118.983 38.8564 118.873 38.9564 118.653 38.9564H117.923C117.163 38.9564 116.783 39.1264 116.783 39.4564V39.8664C116.783 40.1964 117.143 40.3564 117.863 40.3564H119.043C120.363 40.3564 121.043 40.7064 121.043 41.3564V41.9364Z" fill="#1D1919"/>
<path id="Vector_23" d="M137.563 43.0264C136.273 43.0264 135.633 42.6064 135.633 41.7364V38.7364C135.633 38.5464 135.753 38.4564 135.983 38.4564C136.213 38.4564 136.343 38.5464 136.343 38.7364V41.7364C136.343 42.2564 136.753 42.5064 137.593 42.5064H140.313C140.533 42.5064 140.643 42.6064 140.643 42.7764C140.643 42.9464 140.533 43.0464 140.313 43.0464L137.563 43.0264Z" fill="#1D1919"/>
<path id="Vector_24" d="M141.103 38.6764C141.103 38.4864 141.223 38.3964 141.463 38.3964C141.703 38.3964 141.813 38.4864 141.813 38.6764V42.7364C141.813 42.9164 141.683 43.0164 141.453 43.0164C141.223 43.0164 141.103 42.9164 141.103 42.7364V38.6764Z" fill="#1D1919"/>
<path id="Vector_25" d="M143.293 38.5464L147.293 42.0364V38.6664C147.293 38.4864 147.403 38.3964 147.643 38.3964C147.883 38.3964 148.003 38.4864 148.003 38.6664V42.7364C148.003 42.9164 147.873 43.0164 147.623 43.0164C147.557 43.0142 147.492 42.9989 147.432 42.9714C147.372 42.944 147.318 42.9049 147.273 42.8564L143.273 39.3664V42.7364C143.273 42.9164 143.153 43.0164 142.913 43.0164C142.673 43.0164 142.563 42.9164 142.563 42.7364V38.6764C142.563 38.4864 142.693 38.3964 142.933 38.3964C143 38.3954 143.067 38.4083 143.129 38.4341C143.19 38.4599 143.246 38.4981 143.293 38.5464Z" fill="#1D1919"/>
<path id="Vector_26" d="M150.653 43.0265C149.373 43.0265 148.733 42.6065 148.733 41.7665V39.7665C148.733 38.9365 149.363 38.5165 150.623 38.5165H151.563C151.773 38.5165 151.893 38.6165 151.893 38.7865C151.893 38.9565 151.773 39.0565 151.563 39.0565H150.633C149.843 39.0565 149.443 39.2965 149.443 39.7765V40.5165H153.353C153.563 40.5165 153.673 40.6065 153.673 40.7765C153.673 40.9465 153.563 41.0265 153.353 41.0265H149.443V41.7865C149.443 42.2765 149.843 42.5265 150.683 42.5265H153.353C153.583 42.5265 153.693 42.6265 153.693 42.7965C153.693 42.9665 153.583 43.0665 153.353 43.0665L150.653 43.0265Z" fill="#1D1919"/>
<path id="Vector_27" d="M155.043 38.5464L159.043 42.0264V38.6664C159.043 38.4864 159.163 38.3964 159.403 38.3964C159.633 38.3964 159.753 38.4864 159.753 38.6664V42.7364C159.753 42.9164 159.633 43.0164 159.383 43.0164C159.317 43.0153 159.251 43.0005 159.191 42.973C159.131 42.9454 159.077 42.9057 159.033 42.8564L155.033 39.3664V42.7364C155.033 42.9164 154.913 43.0164 154.673 43.0164C154.433 43.0164 154.323 42.9164 154.323 42.7364V38.6764C154.323 38.4864 154.453 38.3964 154.693 38.3964C154.758 38.3967 154.823 38.4102 154.883 38.436C154.943 38.4617 154.997 38.4993 155.043 38.5464Z" fill="#1D1919"/>
<path id="Vector_28" d="M165.343 41.9364C165.343 42.6264 164.673 42.9364 163.343 42.9364H160.673C160.453 42.9364 160.333 42.8464 160.333 42.6664C160.333 42.4864 160.453 42.3964 160.673 42.3964H163.343C164.193 42.3964 164.623 42.2164 164.623 41.8564V41.4264C164.623 41.0764 164.223 40.8964 163.403 40.8964H162.163C160.963 40.8964 160.373 40.5664 160.373 39.8964V39.4164C160.373 38.7464 160.993 38.4164 162.213 38.4164H162.943C163.163 38.4164 163.273 38.5164 163.273 38.6864C163.273 38.8564 163.163 38.9564 162.943 38.9564H162.213C161.463 38.9564 161.083 39.1264 161.083 39.4564V39.8664C161.083 40.1964 161.443 40.3564 162.153 40.3564H163.353C164.673 40.3564 165.353 40.7064 165.353 41.3564L165.343 41.9364Z" fill="#1D1919"/>
<path id="Vector_29" d="M180.423 41.9364C180.423 42.6264 179.753 42.9364 178.423 42.9364H175.753C175.543 42.9364 175.423 42.8464 175.423 42.6664C175.423 42.4864 175.543 42.3964 175.753 42.3964H178.423C179.283 42.3964 179.713 42.2164 179.713 41.8564V41.4264C179.713 41.0764 179.303 40.8964 178.493 40.8964H177.253C176.053 40.8964 175.453 40.5664 175.453 39.8964V39.4164C175.453 38.7464 176.073 38.4164 177.293 38.4164H178.043C178.263 38.4164 178.373 38.5164 178.373 38.6864C178.373 38.8564 178.263 38.9564 178.043 38.9564H177.313C176.553 38.9564 176.173 39.1264 176.173 39.4564V39.8664C176.173 40.1964 176.533 40.3564 177.253 40.3564H178.453C179.773 40.3564 180.453 40.7064 180.453 41.3564L180.423 41.9364Z" fill="#1D1919"/>
<path id="Vector_30" d="M182.933 43.0264C181.653 43.0264 181.003 42.6064 181.003 41.7364V38.7364C181.003 38.5464 181.123 38.4564 181.363 38.4564C181.603 38.4564 181.713 38.5464 181.713 38.7364V41.7364C181.713 42.2564 182.133 42.5064 182.963 42.5064H184.403C185.233 42.5064 185.643 42.2564 185.643 41.7364V38.7364C185.643 38.5464 185.773 38.4564 186.003 38.4564C186.233 38.4564 186.363 38.5464 186.363 38.7364V41.7364C186.363 42.6064 185.703 43.0264 184.433 43.0264H182.933Z" fill="#1D1919"/>
<path id="Vector_31" d="M187.123 38.6764C187.123 38.4864 187.253 38.3964 187.493 38.3964C187.733 38.3964 187.833 38.4864 187.833 38.6764V42.7364C187.833 42.9164 187.713 43.0164 187.473 43.0164C187.233 43.0164 187.123 42.9164 187.123 42.7364V38.6764Z" fill="#1D1919"/>
<path id="Vector_32" d="M190.413 38.9664H188.613C188.393 38.9664 188.283 38.8864 188.283 38.6964C188.283 38.5064 188.393 38.4264 188.613 38.4264H192.903C193.133 38.4264 193.243 38.5264 193.243 38.6964C193.243 38.8664 193.133 38.9664 192.903 38.9664H191.123V42.7364C191.123 42.9164 191.003 43.0164 190.773 43.0164C190.543 43.0164 190.413 42.9164 190.413 42.7364V38.9664Z" fill="#1D1919"/>
<path id="Vector_33" d="M198.543 41.9364C198.543 42.6264 197.873 42.9364 196.543 42.9364H193.873C193.663 42.9364 193.543 42.8464 193.543 42.6664C193.543 42.4864 193.663 42.3964 193.873 42.3964H196.543C197.403 42.3964 197.833 42.2164 197.833 41.8564V41.4264C197.833 41.0764 197.433 40.8964 196.613 40.8964H195.373C194.173 40.8964 193.573 40.5664 193.573 39.8964V39.4164C193.573 38.7464 194.193 38.4164 195.413 38.4164H196.153C196.373 38.4164 196.483 38.5164 196.483 38.6864C196.483 38.8564 196.373 38.9564 196.153 38.9564H195.423C194.663 38.9564 194.283 39.1264 194.283 39.4564V39.8664C194.283 40.1964 194.643 40.3564 195.363 40.3564H196.563C197.883 40.3564 198.563 40.7064 198.563 41.3564L198.543 41.9364Z" fill="#1D1919"/>
</g>
</svg>
